<svg xmlns="http://www.w3.org/2000/svg" viewBox="67.26901409912108 182.65954986572265 440.46200122070314 209.68089125107278"><rect height="100%" width="100%" x="67.26901409912108" y="182.65954986572265" fill="rgba(27, 15, 1, 1)"/> <svg xmlns="http://www.w3.org/2000/svg" xmlns:xlink="http://www.w3.org/1999/xlink" version="1.1" id="Layer_1" x="137.26901409912108" y="252.65954986572265" viewBox="25.299997329711914 49.70000457763672 122.9000015258789 73.19999694824219" xml:space="preserve" height="69.68089125107281" width="116.9915771484375" preserveAspectRatio="xMinYMin" enable-background="new 0 0 172 172" style="overflow: visible;"><radialGradient id="SVGID_1_" cx="83.87" cy="39.91" r="144.663" gradientUnits="userSpaceOnUse" style=""><stop offset="0" style="stop-color: #03DEFF;"></stop><stop offset="0.53" style="stop-color: #5700FF;"></stop><stop offset="1" style="stop-color: #B521BA;"></stop></radialGradient><path class="st0" d="M140.2,117.9l-13.4-7.3c4-7.2,6.2-15.5,6.2-24.3c0-9.7-2.7-18.8-7.5-26.5l13-8c6.2,10,9.7,21.9,9.7,34.5  C148.2,97.7,145.3,108.5,140.2,117.9z" style="fill-rule: evenodd; clip-rule: evenodd; fill: #ff8700; fill-opacity: 1;"></path><radialGradient id="SVGID_2_" cx="83.87" cy="39.91" r="144.663" gradientUnits="userSpaceOnUse" style=""><stop offset="0" style="stop-color: #03DEFF;"></stop><stop offset="0.53" style="stop-color: #5700FF;"></stop><stop offset="1" style="stop-color: #B521BA;"></stop></radialGradient><path class="st1" d="M32.6,122.9v-14.6h0.1c-4.6-6.1-7.4-13.8-7.4-22c0-20.2,16.4-36.6,36.6-36.6h21.9c20.2,0,36.6,16.4,36.6,36.6  c0,20-16.1,36.3-36,36.6v0H32.6z M105.8,86.3c0-12.2-9.9-22-22-22H61.9c-12.2,0-22,9.9-22,22c0,12.2,9.9,22,22,22h21.9  C95.9,108.3,105.8,98.4,105.8,86.3z" style="fill-rule: evenodd; clip-rule: evenodd; fill: #ff8700; fill-opacity: 1;"></path></svg> <svg y="275.9795498657227" viewBox="1.149999976158142 7.199999809265137 173.47000122070312 28.799999237060547" x="264.2610140991211" height="28.799999237060547" width="173.47000122070312" xmlns="http://www.w3.org/2000/svg" style="overflow: visible;"><g fill="#ffffff" style=""><path d="M10.27 30.24L10.27 30.24Q7.30 30.24 5.30 29.36Q3.30 28.48 2.26 27.06Q1.22 25.63 1.15 24.06L1.15 24.06Q1.15 23.78 1.34 23.58Q1.54 23.39 1.82 23.39L1.82 23.39L4.67 23.39Q5.09 23.39 5.30 23.57Q5.50 23.74 5.66 24L5.66 24Q5.86 24.61 6.40 25.20Q6.94 25.79 7.89 26.18Q8.83 26.56 10.27 26.56L10.27 26.56Q12.58 26.56 13.71 25.79Q14.85 25.02 14.85 23.71L14.85 23.71Q14.85 22.78 14.24 22.22Q13.63 21.66 12.37 21.20Q11.10 20.74 9.02 20.22L9.02 20.22Q6.62 19.65 5.01 18.83Q3.39 18.02 2.58 16.77Q1.76 15.52 1.76 13.60L1.76 13.60Q1.76 11.74 2.77 10.30Q3.78 8.86 5.65 8.03Q7.52 7.20 10.11 7.20L10.11 7.20Q12.19 7.20 13.79 7.76Q15.39 8.32 16.45 9.23Q17.50 10.14 18.06 11.18Q18.62 12.22 18.66 13.22L18.66 13.22Q18.66 13.47 18.48 13.68Q18.30 13.89 17.98 13.89L17.98 13.89L15.01 13.89Q14.75 13.89 14.50 13.76Q14.24 13.63 14.08 13.28L14.08 13.28Q13.89 12.29 12.83 11.58Q11.78 10.88 10.11 10.88L10.11 10.88Q8.38 10.88 7.33 11.52Q6.27 12.16 6.27 13.50L6.27 13.50Q6.27 14.40 6.80 14.99Q7.33 15.58 8.50 16.03Q9.66 16.48 11.58 16.99L11.58 16.99Q14.30 17.60 16.03 18.40Q17.76 19.20 18.56 20.43Q19.36 21.66 19.36 23.55L19.36 23.55Q19.36 25.66 18.22 27.15Q17.09 28.64 15.04 29.44Q12.99 30.24 10.27 30.24ZM29.86 30.24L29.86 30.24Q27.55 30.24 25.81 29.38Q24.06 28.51 23.09 26.86Q22.11 25.22 22.02 22.88L22.02 22.88Q21.98 22.40 21.98 21.62Q21.98 20.83 22.02 20.32L22.02 20.32Q22.11 17.98 23.09 16.34Q24.06 14.69 25.81 13.82Q27.55 12.96 29.86 12.96L29.86 12.96Q31.90 12.96 33.34 13.52Q34.78 14.08 35.71 14.96Q36.64 15.84 37.10 16.78Q37.57 17.73 37.60 18.50L37.60 18.50Q37.63 18.85 37.39 19.06Q37.15 19.26 36.83 19.26L36.83 19.26L34.02 19.26Q33.70 19.26 33.52 19.10Q33.34 18.94 33.18 18.62L33.18 18.62Q32.70 17.34 31.92 16.82Q31.14 16.29 29.92 16.29L29.92 16.29Q28.32 16.29 27.38 17.30Q26.43 18.30 26.37 20.48L26.37 20.48Q26.30 21.70 26.37 22.72L26.37 22.72Q26.43 24.93 27.38 25.92Q28.32 26.91 29.92 26.91L29.92 26.91Q31.17 26.91 31.94 26.38Q32.70 25.86 33.18 24.58L33.18 24.58Q33.34 24.26 33.52 24.10Q33.70 23.94 34.02 23.94L34.02 23.94L36.83 23.94Q37.15 23.94 37.39 24.14Q37.63 24.35 37.60 24.70L37.60 24.70Q37.57 25.28 37.30 26Q37.02 26.72 36.43 27.47Q35.84 28.22 34.94 28.85Q34.05 29.47 32.78 29.86Q31.52 30.24 29.86 30.24ZM44.48 29.92L41.70 29.92Q41.38 29.92 41.15 29.70Q40.93 29.47 40.93 29.15L40.93 29.15L40.93 14.08Q40.93 13.73 41.15 13.50Q41.38 13.28 41.70 13.28L41.70 13.28L44.29 13.28Q44.61 13.28 44.85 13.50Q45.09 13.73 45.09 14.08L45.09 14.08L45.09 15.39Q45.82 14.37 46.99 13.82Q48.16 13.28 49.70 13.28L49.70 13.28L51.01 13.28Q51.36 13.28 51.57 13.50Q51.78 13.73 51.78 14.05L51.78 14.05L51.78 16.35Q51.78 16.67 51.57 16.90Q51.36 17.12 51.01 17.12L51.01 17.12L48.51 17.12Q46.98 17.12 46.13 17.97Q45.28 18.82 45.28 20.35L45.28 20.35L45.28 29.15Q45.28 29.47 45.06 29.70Q44.83 29.92 44.48 29.92L44.48 29.92ZM61.44 30.24L61.44 30.24Q57.89 30.24 55.81 28.19Q53.73 26.14 53.57 22.37L53.57 22.37Q53.54 22.05 53.54 21.55Q53.54 21.06 53.57 20.77L53.57 20.77Q53.70 18.34 54.67 16.59Q55.65 14.85 57.38 13.90Q59.10 12.96 61.44 12.96L61.44 12.96Q64.03 12.96 65.79 14.03Q67.55 15.10 68.45 17.01Q69.34 18.91 69.34 21.41L69.34 21.41L69.34 22.08Q69.34 22.40 69.12 22.62Q68.90 22.85 68.54 22.85L68.54 22.85L57.92 22.85Q57.92 22.85 57.92 22.94Q57.92 23.04 57.92 23.10L57.92 23.10Q57.95 24.22 58.35 25.17Q58.75 26.11 59.54 26.69Q60.32 27.26 61.41 27.26L61.41 27.26Q62.30 27.26 62.91 26.99Q63.52 26.72 63.90 26.37Q64.29 26.02 64.45 25.79L64.45 25.79Q64.74 25.41 64.91 25.33Q65.09 25.25 65.44 25.25L65.44 25.25L68.19 25.25Q68.51 25.25 68.72 25.44Q68.93 25.63 68.90 25.92L68.90 25.92Q68.86 26.43 68.37 27.17Q67.87 27.90 66.94 28.61Q66.02 29.31 64.62 29.78Q63.23 30.24 61.44 30.24ZM57.92 20.06L57.92 20.16L64.99 20.16L64.99 20.06Q64.99 18.82 64.58 17.87Q64.16 16.93 63.36 16.40Q62.56 15.87 61.44 15.87L61.44 15.87Q60.32 15.87 59.52 16.40Q58.72 16.93 58.32 17.87Q57.92 18.82 57.92 20.06L57.92 20.06ZM79.90 30.24L79.90 30.24Q76.35 30.24 74.27 28.19Q72.19 26.14 72.03 22.37L72.03 22.37Q72 22.05 72 21.55Q72 21.06 72.03 20.77L72.03 20.77Q72.16 18.34 73.14 16.59Q74.11 14.85 75.84 13.90Q77.57 12.96 79.90 12.96L79.90 12.96Q82.50 12.96 84.26 14.03Q86.02 15.10 86.91 17.01Q87.81 18.91 87.81 21.41L87.81 21.41L87.81 22.08Q87.81 22.40 87.58 22.62Q87.36 22.85 87.01 22.85L87.01 22.85L76.38 22.85Q76.38 22.85 76.38 22.94Q76.38 23.04 76.38 23.10L76.38 23.10Q76.42 24.22 76.82 25.17Q77.22 26.11 78 26.69Q78.78 27.26 79.87 27.26L79.87 27.26Q80.77 27.26 81.38 26.99Q81.98 26.72 82.37 26.37Q82.75 26.02 82.91 25.79L82.91 25.79Q83.20 25.41 83.38 25.33Q83.55 25.25 83.90 25.25L83.90 25.25L86.66 25.25Q86.98 25.25 87.18 25.44Q87.39 25.63 87.36 25.92L87.36 25.92Q87.33 26.43 86.83 27.17Q86.34 27.90 85.41 28.61Q84.48 29.31 83.09 29.78Q81.70 30.24 79.90 30.24ZM76.38 20.06L76.38 20.16L83.46 20.16L83.46 20.06Q83.46 18.82 83.04 17.87Q82.62 16.93 81.82 16.40Q81.02 15.87 79.90 15.87L79.90 15.87Q78.78 15.87 77.98 16.40Q77.18 16.93 76.78 17.87Q76.38 18.82 76.38 20.06L76.38 20.06ZM94.78 29.92L91.97 29.92Q91.65 29.92 91.42 29.70Q91.20 29.47 91.20 29.15L91.20 29.15L91.20 14.05Q91.20 13.73 91.42 13.50Q91.65 13.28 91.97 13.28L91.97 13.28L94.59 13.28Q94.91 13.28 95.14 13.50Q95.36 13.73 95.36 14.05L95.36 14.05L95.36 15.36Q96.19 14.34 97.49 13.65Q98.78 12.96 100.70 12.96L100.70 12.96Q102.66 12.96 104.10 13.84Q105.54 14.72 106.32 16.32Q107.10 17.92 107.10 20.16L107.10 20.16L107.10 29.15Q107.10 29.47 106.88 29.70Q106.66 29.92 106.34 29.92L106.34 29.92L103.52 29.92Q103.20 29.92 102.98 29.70Q102.75 29.47 102.75 29.15L102.75 29.15L102.75 20.35Q102.75 18.50 101.84 17.44Q100.93 16.38 99.20 16.38L99.20 16.38Q97.54 16.38 96.54 17.44Q95.55 18.50 95.55 20.35L95.55 20.35L95.55 29.15Q95.55 29.47 95.33 29.70Q95.10 29.92 94.78 29.92L94.78 29.92ZM115.36 29.92L112.32 29.92Q112 29.92 111.78 29.70Q111.55 29.47 111.55 29.15L111.55 29.15L111.55 8.32Q111.55 7.97 111.78 7.74Q112 7.52 112.32 7.52L112.32 7.52L120.90 7.52Q123.39 7.52 125.25 8.30Q127.10 9.09 128.13 10.67Q129.15 12.26 129.15 14.62L129.15 14.62Q129.15 17.02 128.13 18.58Q127.10 20.13 125.25 20.90Q123.39 21.66 120.90 21.66L120.90 21.66L116.13 21.66L116.13 29.15Q116.13 29.47 115.92 29.70Q115.71 29.92 115.36 29.92L115.36 29.92ZM116.06 11.07L116.06 18.11L120.74 18.11Q122.59 18.11 123.58 17.23Q124.58 16.35 124.58 14.62L124.58 14.62Q124.58 13.02 123.65 12.05Q122.72 11.07 120.74 11.07L120.74 11.07L116.06 11.07ZM135.71 29.92L133.06 29.92Q132.74 29.92 132.51 29.70Q132.29 29.47 132.29 29.15L132.29 29.15L132.29 7.97Q132.29 7.65 132.51 7.42Q132.74 7.20 133.06 7.20L133.06 7.20L135.71 7.20Q136.03 7.20 136.26 7.42Q136.48 7.65 136.48 7.97L136.48 7.97L136.48 29.15Q136.48 29.47 136.26 29.70Q136.03 29.92 135.71 29.92L135.71 29.92ZM145.57 30.24L145.57 30.24Q143.90 30.24 142.56 29.58Q141.22 28.93 140.43 27.82Q139.65 26.72 139.65 25.34L139.65 25.34Q139.65 23.10 141.47 21.78Q143.30 20.45 146.24 20L146.24 20L150.62 19.36L150.62 18.69Q150.62 17.34 149.95 16.61Q149.28 15.87 147.65 15.87L147.65 15.87Q146.50 15.87 145.78 16.34Q145.06 16.80 144.70 17.57L144.70 17.57Q144.45 17.98 143.97 17.98L143.97 17.98L141.44 17.98Q141.09 17.98 140.91 17.79Q140.74 17.60 140.74 17.28L140.74 17.28Q140.77 16.77 141.17 16.03Q141.57 15.30 142.38 14.61Q143.20 13.92 144.51 13.44Q145.82 12.96 147.68 12.96L147.68 12.96Q149.70 12.96 151.09 13.46Q152.48 13.95 153.31 14.78Q154.14 15.62 154.53 16.74Q154.91 17.86 154.91 19.10L154.91 19.10L154.91 29.15Q154.91 29.47 154.69 29.70Q154.46 29.92 154.14 29.92L154.14 29.92L151.55 29.92Q151.20 29.92 150.99 29.70Q150.78 29.47 150.78 29.15L150.78 29.15L150.78 27.90Q150.37 28.48 149.66 29.02Q148.96 29.57 147.95 29.90Q146.94 30.24 145.57 30.24ZM146.66 27.20L146.66 27.20Q147.78 27.20 148.69 26.72Q149.60 26.24 150.13 25.23Q150.66 24.22 150.66 22.69L150.66 22.69L150.66 22.02L147.46 22.53Q145.57 22.82 144.64 23.46Q143.71 24.10 143.71 25.02L143.71 25.02Q143.71 25.73 144.14 26.22Q144.58 26.72 145.25 26.96Q145.92 27.20 146.66 27.20ZM164.54 36L162.02 36Q161.76 36 161.57 35.81Q161.38 35.62 161.38 35.36L161.38 35.36Q161.38 35.23 161.39 35.12Q161.41 35.01 161.50 34.85L161.50 34.85L164 28.93L157.86 14.43Q157.73 14.11 157.73 13.98L157.73 13.98Q157.76 13.70 157.95 13.49Q158.14 13.28 158.43 13.28L158.43 13.28L161.02 13.28Q161.41 13.28 161.60 13.47Q161.79 13.66 161.89 13.89L161.89 13.89L166.14 24.35L170.53 13.89Q170.62 13.63 170.82 13.46Q171.01 13.28 171.39 13.28L171.39 13.28L173.95 13.28Q174.21 13.28 174.42 13.47Q174.62 13.66 174.62 13.92L174.62 13.92Q174.62 14.11 174.50 14.43L174.50 14.43L165.44 35.39Q165.31 35.65 165.12 35.82Q164.93 36 164.54 36L164.54 36Z" transform="translate(0, 0)"></path></g></svg></svg>